<?xml version="1.0" encoding="UTF-8" standalone="no"?>
<!-- Created with Inkscape (http://www.inkscape.org/) -->

<svg
   xmlns:dc="http://purl.org/dc/elements/1.1/"
   xmlns:cc="http://creativecommons.org/ns#"
   xmlns:rdf="http://www.w3.org/1999/02/22-rdf-syntax-ns#"
   xmlns:svg="http://www.w3.org/2000/svg"
   xmlns="http://www.w3.org/2000/svg"
   xmlns:sodipodi="http://sodipodi.sourceforge.net/DTD/sodipodi-0.dtd"
   xmlns:inkscape="http://www.inkscape.org/namespaces/inkscape"
   id="svg6130"
   version="1.1"
   inkscape:version="0.91 r13725"
   width="355"
   height="262"
   viewBox="0 0 355 262"
   sodipodi:docname="logo.svg">
  <metadata
     id="metadata6136">
    <rdf:RDF>
      <cc:Work
         rdf:about="">
        <dc:format>image/svg+xml</dc:format>
        <dc:type
           rdf:resource="http://purl.org/dc/dcmitype/StillImage" />
        <dc:title></dc:title>
      </cc:Work>
    </rdf:RDF>
  </metadata>
  <defs
     id="defs6134" />
  <sodipodi:namedview
     pagecolor="#ffffff"
     bordercolor="#666666"
     borderopacity="1"
     objecttolerance="10"
     gridtolerance="10"
     guidetolerance="10"
     inkscape:pageopacity="0"
     inkscape:pageshadow="2"
     inkscape:window-width="1146"
     inkscape:window-height="639"
     id="namedview6132"
     showgrid="false"
     inkscape:zoom="1.3614989"
     inkscape:cx="221.8147"
     inkscape:cy="150.37567"
     inkscape:window-x="37"
     inkscape:window-y="0"
     inkscape:window-maximized="0"
     inkscape:current-layer="svg6130" />
  <g
     id="g6152"
     transform="translate(-16.893146,-13.027523)">
    <g
       id="g6148">
      <path
         style="fill:none;fill-rule:evenodd;stroke:#000000;stroke-width:4;stroke-linecap:butt;stroke-linejoin:round;stroke-miterlimit:4;stroke-dasharray:none;stroke-opacity:1"
         d="m 69.465772,49.987244 -0.05335,-5.762137 c 0,0 -4.161544,-1.01371 -4.268251,-6.082257 -0.106706,-5.068547 4.108192,-4.908487 4.108192,-4.908487 0,0 3.894778,-0.16006 3.894778,4.855134 0,4.109577 -3.254541,5.815491 -3.254541,5.815491 l 0.480175,6.188963 z"
         id="path6146"
         inkscape:connector-curvature="0"
         sodipodi:nodetypes="ccscsccc" />
    </g>
  </g>
  <path
     style="fill:none;fill-rule:evenodd;stroke:#44becc;stroke-width:2.4000001;stroke-linecap:butt;stroke-linejoin:miter;stroke-miterlimit:4;stroke-dasharray:none;stroke-opacity:1"
     d="m 46.8816,182.99957 c 0,0 -11.113536,-2.09382 -13.951145,6.45983 -1.904175,5.73992 1.395401,13.42855 7.797777,14.70903 9.770833,1.95417 33.171673,4.77456 43.276292,-13.8308 2.66156,-4.90065 4.18768,-13.42118 0.279,-23.35501 C 82.742553,163.06627 79.768365,149.37759 45.209599,135.5028 22.924392,126.55565 5.7321909,107.43131 4.1936689,86.6 1.4511999,49.467484 20.667456,17.219065 47.557432,23.62144 c 26.889976,6.402376 40.965422,32.305183 73.840728,32.011877 49.98769,-0.445979 56.91266,-28.438613 79.81627,-37.133777 35.62393,-13.524327 49.08488,9.816976 49.08488,9.816976"
     id="path6158"
     inkscape:connector-curvature="0"
     sodipodi:nodetypes="csssssssssc" />
  <g
     id="g6224"
     transform="translate(-16.893146,-13.027523)">
    <path
       sodipodi:nodetypes="ccscccscccscc"
       inkscape:connector-curvature="0"
       id="path6144"
       d="m 323.35524,74.849094 0,-17.052313 c 0,0 1.96177,-3.470825 4.97988,-3.169015 3.01811,0.301811 5.2817,2.565393 5.2817,2.565393 l 0.1509,22.484909 17.50503,0.301811 c 0,0 2.11267,1.358149 2.11267,3.169014 0,1.810866 -1.50905,3.169014 -1.50905,3.169014 L 333.76772,85.714286 333.315,146.07646 c 0,0 -0.60363,2.11268 -4.52717,2.11268 -3.92354,0 -4.67806,-1.81087 -4.67806,-1.81087 z"
       style="fill:#000000;fill-rule:evenodd;stroke:none;stroke-width:1px;stroke-linecap:butt;stroke-linejoin:miter;stroke-opacity:1" />
    <g
       id="g6204">
      <path
         sodipodi:nodetypes="csscc"
         inkscape:connector-curvature="0"
         id="path6140"
         d="m 21.126761,272.2334 c 0,0 -0.0029,-31.90592 19.315895,-35.61368 16.406358,-3.1488 299.369564,0.31247 307.243464,0.60362 20.35524,0.75269 21.73038,36.2173 21.73038,36.2173 z"
         style="fill:#000000;fill-rule:evenodd;stroke:none;stroke-width:1px;stroke-linecap:butt;stroke-linejoin:miter;stroke-opacity:1" />
      <g
         id="g6199">
        <path
           sodipodi:nodetypes="cssscccsccsccscscssccc"
           inkscape:connector-curvature="0"
           id="path6142"
           d="m 217.30382,234.20523 c 0,0 -4.82897,-21.12676 8.45071,-35.91549 7.74704,-8.62739 39.83903,-27.46479 39.23541,-43.15896 -0.60362,-15.69416 -9.05433,-24.14486 -20.52314,-24.14486 -11.46881,0 -121.93159,0.30181 -121.93159,0.30181 0,0 -24.942027,-2.3165 -29.577463,7.54527 -3.900907,1.70368 -2.414487,47.68611 -2.414487,47.68611 0,0 -10.865192,6.03622 -13.279679,6.03622 -2.414486,0 -4.828973,34.40644 -4.828973,34.40644 l -3.018109,-33.19919 c 0,0 -4.225352,-0.60363 -9.657948,-3.01811 -5.432595,-2.41449 -7.847082,-4.82898 -7.847082,-4.82898 L 54.024145,63.078471 c 0,0 5.895951,-15.515039 18.410463,-12.977867 14.708663,2.982011 18.108652,15.694165 18.108652,15.694165 0,0 9.65795,-1.810866 17.50503,4.828973 7.84708,6.639839 7.84708,12.072435 7.84708,12.072435 0,0 75.45271,9.657948 95.97585,-4.828974 20.52314,-14.486921 42.55534,-31.086519 70.32194,-27.464788 27.7666,3.62173 43.15895,26.257545 43.15895,26.257545 l 1.81087,159.95976 z"
           style="fill:#000000;fill-rule:evenodd;stroke:none;stroke-width:3;stroke-linecap:butt;stroke-linejoin:miter;stroke-miterlimit:4;stroke-dasharray:none;stroke-opacity:1" />
        <path
           sodipodi:nodetypes="cscccc"
           inkscape:connector-curvature="0"
           id="path6196"
           d="m 208.26298,251.43993 c 0,0 8.8291,-6.23231 8.8291,-11.94526 0,-5.71295 0.25967,-8.56942 0.25967,-8.56942 l 108.54605,-3.37584 1.03872,12.20494 z"
           style="fill:#000000;fill-rule:evenodd;stroke:#000000;stroke-width:1px;stroke-linecap:butt;stroke-linejoin:miter;stroke-opacity:1" />
      </g>
    </g>
  </g>
  <g
     id="g6214"
     transform="translate(-16.893146,-13.027523)">
    <path
       sodipodi:nodetypes="csc"
       inkscape:connector-curvature="0"
       id="path6166"
       d="m 262.84823,16.702321 c 0,0 -8.93476,-0.492102 -8.50236,3.255365 0.4324,3.747466 6.9169,4.671968 6.9169,4.671968"
       style="fill:#44becc;fill-opacity:1;fill-rule:evenodd;stroke:#44becc;stroke-width:1px;stroke-linecap:butt;stroke-linejoin:miter;stroke-opacity:1" />
    <path
       sodipodi:nodetypes="csc"
       inkscape:connector-curvature="0"
       id="path6168"
       d="m 259.00459,47.367747 c 0,0 -4.93358,1.366506 -4.41267,3.866871 0.72067,3.4592 7.58361,2.763262 7.58361,2.763262"
       style="fill:#44becc;fill-opacity:1;fill-rule:evenodd;stroke:#44becc;stroke-width:1px;stroke-linecap:butt;stroke-linejoin:miter;stroke-opacity:1" />
    <g
       id="g6210">
      <path
         sodipodi:nodetypes="csc"
         inkscape:connector-curvature="0"
         id="path6190"
         d="m 280.05246,16.740674 c 0,0 8.93476,-0.492102 8.50236,3.255365 -0.4324,3.747466 -6.9169,4.671968 -6.9169,4.671968"
         style="fill:#44becc;fill-opacity:1;fill-rule:evenodd;stroke:#44becc;stroke-width:1px;stroke-linecap:butt;stroke-linejoin:miter;stroke-opacity:1" />
      <rect
         style="fill:#44becc;fill-opacity:1;stroke:#44becc;stroke-width:4.66932774;stroke-linejoin:round;stroke-miterlimit:4;stroke-dasharray:none;stroke-dashoffset:0;stroke-opacity:1"
         id="rect6164"
         width="21.959606"
         height="33.634399"
         x="260.06293"
         y="18.554008" />
    </g>
    <path
       style="fill:#44becc;fill-opacity:1;fill-rule:evenodd;stroke:#44becc;stroke-width:1px;stroke-linecap:butt;stroke-linejoin:miter;stroke-opacity:1"
       d="m 283.82623,47.316788 c 0,0 4.93358,1.366506 4.41267,3.866871 -0.72067,3.4592 -7.58361,2.763262 -7.58361,2.763262"
       id="path6192"
       inkscape:connector-curvature="0"
       sodipodi:nodetypes="csc" />
  </g>
</svg>
